<?xml version="1.0" encoding="UTF-8"?> <svg xmlns="http://www.w3.org/2000/svg" id="Layer_1" data-name="Layer 1" viewBox="0 0 52.97 57.62"><defs><style>.cls-1{fill:#ffffff;}.cls-2{fill:#ffffff;}.cls-3{fill:#bf9767;}</style></defs><title>garcia_logo_</title><path class="cls-1" d="M47,77.4c-.22,0-.31.07-.31.24s0,.23,0,.56v.38a1.21,1.21,0,0,1-.25.87.91.91,0,0,1-.66.22,1,1,0,0,1-.59-.16,1,1,0,0,1-.32-.83v-.91c0-.32,0-.34-.31-.37v-.1h.94v.1c-.29,0-.31,0-.31.37v.89c0,.52.24.81.67.81s.67-.31.67-.91V78.2a5.21,5.21,0,0,0,0-.56c0-.16-.09-.22-.36-.24v-.1H47Zm1.6,1c.34,0,.62.22.62.56a.6.6,0,0,1-.34.55,1.14,1.14,0,0,1-.62.14h-.88v-.1c.3,0,.32-.06.32-.34V77.75c0-.3,0-.32-.32-.35v-.1h.94a1,1,0,0,1,.55.13.47.47,0,0,1,.21.4A.58.58,0,0,1,48.55,78.37Zm-.41-.05c.39,0,.55-.15.55-.45s-.15-.44-.49-.44a.31.31,0,0,0-.2,0s0,.06,0,.17v.68Zm-.18.85c0,.26.06.33.31.33a.5.5,0,0,0,.55-.53c0-.36-.25-.52-.69-.52H48Zm4.09-1.77c-.22,0-.3.07-.31.24s0,.23,0,.56v.38a1.21,1.21,0,0,1-.25.87.9.9,0,0,1-.66.22.94.94,0,0,1-.58-.16.92.92,0,0,1-.32-.83v-.91c0-.32,0-.34-.32-.37v-.1h.94v.1c-.28,0-.31,0-.31.37v.89c0,.52.24.81.67.81s.67-.31.67-.91V78.2a5.21,5.21,0,0,0,0-.56c0-.16-.09-.22-.35-.24v-.1h.85Zm1.38-.1a1.42,1.42,0,0,1,1,.31,1.09,1.09,0,0,1,.3.77,1.18,1.18,0,0,1-.44,1,1.68,1.68,0,0,1-1.06.28h-.84v-.1c.31,0,.32,0,.32-.34V77.75c0-.3,0-.32-.32-.35v-.1Zm-.36,1.85c0,.27.11.34.38.34a.94.94,0,0,0,1-1.06.92.92,0,0,0-.42-.86,1.15,1.15,0,0,0-.61-.14.5.5,0,0,0-.28,0s0,.06,0,.2Zm2.14.8c.16-.08.28-.18.28-.31s-.1-.16-.23-.19a.13.13,0,0,1,0-.12.18.18,0,0,1,.2-.17.33.33,0,0,1,.3.37.58.58,0,0,1-.46.52Zm3.26-1.58c.34,0,.62.22.62.56a.61.61,0,0,1-.35.55,1.12,1.12,0,0,1-.62.14h-.87v-.1c.3,0,.32-.06.32-.34V77.75c0-.3,0-.32-.32-.35v-.1h.93a.92.92,0,0,1,.55.13.45.45,0,0,1,.21.4A.57.57,0,0,1,58.47,78.37Zm-.41-.05c.39,0,.55-.15.55-.45s-.15-.44-.5-.44a.33.33,0,0,0-.2,0s0,.06,0,.17v.68Zm-.19.85c0,.26.07.33.32.33a.5.5,0,0,0,.55-.53c0-.36-.26-.52-.69-.52h-.18Zm3,.45v-.1c.24,0,.26-.06.21-.2s-.11-.31-.19-.54h-.77l-.16.45c-.08.23,0,.26.26.29v.1h-.82v-.1c.22,0,.28,0,.41-.37l.74-1.88.11,0,.7,1.91c.11.31.14.34.4.36v.1Zm-.35-1.9-.35.91h.67ZM63.89,79c0,.11-.13.48-.16.59H62.07v-.1c.32,0,.35,0,.35-.35V77.75c0-.3,0-.32-.32-.35v-.1h1v.1c-.29,0-.33,0-.33.35v1.46c0,.21,0,.26.23.27h.29c.18,0,.23,0,.31-.11a1.14,1.14,0,0,0,.22-.37Zm.42.59v-.1c.29,0,.32,0,.32-.35V77.76c0-.31,0-.32-.32-.36v-.1h1v.1c-.29,0-.32,0-.32.36v1.41c0,.31,0,.32.32.35v.1Z" transform="translate(-27.39 -22.43)"></path><path class="cls-1" d="M78.24,74.44v-.27c.46-.06.46-.14.36-.46s-.19-.54-.3-.84H76.88l-.26.73c-.15.46,0,.52.6.57v.27h-1.8v-.27c.46-.06.58-.12.82-.73l1.52-3.78.35-.06c.47,1.27,1,2.57,1.44,3.78.27.68.33.73.81.79v.27ZM77.6,71c-.21.52-.42,1-.6,1.54h1.16Z" transform="translate(-27.39 -22.43)"></path><path class="cls-1" d="M33.92,71a2.07,2.07,0,0,0-.32-.71c-.13-.16-.19-.21-.62-.21h-.46v3.42c0,.62.07.66.72.71v.27H30.82v-.27c.62,0,.68-.09.68-.71V70h-.44c-.41,0-.53.06-.67.24a2.74,2.74,0,0,0-.29.69h-.28c.05-.53.1-1.1.11-1.45h.22c.11.17.2.18.42.18h2.92a.47.47,0,0,0,.42-.18h.21c0,.31,0,1,.07,1.42Zm6.68-1c-.57.06-.62.1-.62.71v2.79c0,.61.06.65.62.7v.27H38.34v-.27c.58-.07.62-.09.62-.7V72.1H37v1.37c0,.61.07.64.62.7v.27H35.36v-.27c.54-.06.62-.09.62-.7V70.68c0-.61-.07-.67-.62-.71V69.7h2.25V70c-.56,0-.62.1-.62.71v1h2v-1c0-.61-.07-.65-.62-.71V69.7H40.6ZM46,73.2c0,.2-.25,1-.31,1.24H41.89v-.26c.67-.07.71-.1.71-.72V70.68c0-.62-.09-.67-.58-.71V69.7h3.49c0,.13,0,.73.07,1.18l-.28,0a2,2,0,0,0-.31-.67c-.14-.15-.23-.19-.6-.19h-.48c-.27,0-.3,0-.3.26v1.52h.71c.41,0,.48-.11.59-.62h.29v1.62h-.29c-.11-.54-.17-.62-.6-.62h-.7v1.25c0,.5,0,.66.46.66h.52c.41,0,.52,0,.68-.24a4,4,0,0,0,.45-.73Zm8.1-.76c-.41.08-.46.11-.46.6v.56a3.83,3.83,0,0,0,0,.71,10.31,10.31,0,0,1-1.66.24c-1.72,0-2.8-1-2.8-2.49s1.32-2.46,2.88-2.46a9.88,9.88,0,0,1,1.47.17c0,.32.08.87.13,1.27l-.28,0a1.46,1.46,0,0,0-.89-1.1,1.87,1.87,0,0,0-.59-.07c-.88,0-1.59.71-1.59,2s.47,2.3,1.67,2.3a.93.93,0,0,0,.45-.09c.11-.07.17-.19.17-.42v-.65c0-.51-.11-.56-.72-.64v-.27h2.18Zm3.74,2v-.27c.46-.06.46-.14.35-.46s-.19-.54-.3-.84H56.46c-.08.23-.18.51-.25.73-.16.46,0,.52.59.57v.27H55v-.27c.46-.06.58-.12.83-.73l1.51-3.78.35-.06c.47,1.27,1,2.57,1.44,3.78.27.68.34.73.81.79v.27ZM57.18,71c-.21.52-.41,1-.59,1.54h1.16Zm8.23,3.53h-.22c-.93,0-1.2-.24-1.41-.55A11.66,11.66,0,0,1,63,72.65c-.1-.2-.21-.24-.44-.24h-.15v1.06c0,.6.08.65.62.71v.27H60.82v-.27c.56-.06.62-.11.62-.71V70.67c0-.58-.07-.66-.62-.7V69.7h2.12a2.18,2.18,0,0,1,1.32.28,1.13,1.13,0,0,1,.49,1,1.24,1.24,0,0,1-.92,1.18c.11.22.4.69.62,1a5.45,5.45,0,0,0,.55.76.94.94,0,0,0,.46.32ZM62.63,72.1a1.08,1.08,0,0,0,.72-.19,1,1,0,0,0,.34-.85c0-.78-.45-1-.85-1-.2,0-.3,0-.34.07s-.07.13-.07.28V72.1Zm8.2,1.09a9.25,9.25,0,0,1-.41,1.17,5.89,5.89,0,0,1-1.34.19,2.46,2.46,0,0,1-2.77-2.42c0-1.51,1.15-2.53,2.9-2.53a8.13,8.13,0,0,1,1.38.17c0,.35.09.89.14,1.21l-.3,0a1.24,1.24,0,0,0-.75-1,1.72,1.72,0,0,0-.64-.11c-1.06,0-1.59.89-1.59,2,0,1.34.69,2.24,1.69,2.24.61,0,1-.32,1.41-1.12Zm1.24,1.25v-.27c.55,0,.62-.09.62-.71V70.69c0-.62-.08-.68-.62-.72V69.7h2.25V70c-.55,0-.62.1-.62.72v2.77c0,.61.07.65.62.71v.27Z" transform="translate(-27.39 -22.43)"></path><path class="cls-2" d="M36.3,42.32c-3.86.33-8.66-4.75-8.72-9.57-.07-5.1,4.51-10.35,8.54-10.16-2.4.6-3.46,2.51-3.83,4.55a29.11,29.11,0,0,0,0,10.61c.38,2,1.47,4,4,4.57" transform="translate(-27.39 -22.43)"></path><path class="cls-2" d="M44.56,34a2.94,2.94,0,0,0-1.22,2.75,11.42,11.42,0,0,1-.15,2.35c-.54,2.19-4,3.7-6.34,3.16a4.45,4.45,0,0,0,2.92-4,3.68,3.68,0,0,1,2.06-3.79H38c0-.06,0-.38,0-.45Z" transform="translate(-27.39 -22.43)"></path><path class="cls-2" d="M42.66,27.08c-.93-2.31-3-3.68-5.64-4.53,3-.33,3.93,1.48,5.64-.12Z" transform="translate(-27.39 -22.43)"></path><path class="cls-2" d="M29.61,52.36a2.94,2.94,0,0,1,2.22,3.19,13.62,13.62,0,0,0,.51,3,5.16,5.16,0,0,0,3.9,3.68c-3.67.47-8.66-4.69-8.84-9.54-.2-5.21,4.52-10.54,8.9-10.4C33.09,43.45,32,46,31.77,48.74c-.16,2.14-.26,2.37-2.16,3.62" transform="translate(-27.39 -22.43)"></path><path class="cls-2" d="M36.85,42.29c1.68-.27,4,1.73,5.77.18V47.1c-1-2.3-3.4-4-5.77-4.81" transform="translate(-27.39 -22.43)"></path><path class="cls-2" d="M42.82,62.09c-1.77-1.45-3.9.56-5.81.17,2.52-.91,4.91-2.42,5.81-4.78Z" transform="translate(-27.39 -22.43)"></path><path class="cls-3" d="M76.89,62.39H59.38c0-.12,0-.39,0-.51,1.32-.06,5.87,0,7.68-.09C62.72,52,56.88,38.65,52.43,28.62c-.78,1.51-3,6.37-3.53,7.4l-.57-.21q3-6.65,6-13.28H55c.49,1,1,2.07,1.46,3.11,5.12,11.26,10.29,22.5,15.31,33.8,1,1.68,1.69,2.69,4.13,2.5a2.92,2.92,0,0,1,.86.14c.05,0,.06.12.15.31" transform="translate(-27.39 -22.43)"></path><path class="cls-2" d="M54.35,62.41H47.27C49,61.93,49,60.51,49,59.15c0-5,0-10,0-15,0-1.27-.86-.84-1.43-1.15h7c0,.07-.06.16-.09.16-1.8.19-1.8.19-1.8,2.07,0,3.21-.05,6.42,0,9.64.06,2.85,0,5.34-2.8,7.11h4.37c0,.08,0,.38,0,.46" transform="translate(-27.39 -22.43)"></path><path class="cls-2" d="M77.87,43.51c-2.11.08-2.45-.24-2.57-2.44-.06-1.08-.06-2.16-.16-3.24a5.16,5.16,0,0,0-3.92-4.75c-.56-.17-1.13-.3-1.6-.43a25.09,25.09,0,0,0,3.25-1.82,3.86,3.86,0,0,0,1-4.93c-1-1.93-3.8-3.42-6.48-3.26H61.15v.46l6.49,0c2.7,1,2.71,3.06,2.68,5.31,0,1.74-.44,3-2.39,3.82l-4.54,0v.47H68c2.15,1,2.63,2.89,2.8,4.93a18.62,18.62,0,0,0,.35,3.09,5,5,0,0,0,6.78,3s0-.13,0-.2" transform="translate(-27.39 -22.43)"></path></svg> 